# xmcd CD database file
#
# Track frame offsets:
#	150
#	12795
#	35959
#	59941
#	87095
#	111379
#	128771
#	155129
#	178315
#	202420
#	227414
#	246632
#	272353
#
# Disc length: 3914 seconds
#
# Revision: 0
# Processed by: cddbd v1.5.2PL0 Copyright (c) Steve Scherf et al.
# Submitted via: CDex 1.70beta2
#
DISCID=c70f480d
DTITLE=JABBERLOOP - LIVE at MOTION BLUE YOKOHAMA
DYEAR=2009
DGENRE=Jazz
TTITLE0=Re:Loop
TTITLE1=HERE WE GO!!
TTITLE2=スペース大怪獣の逆襲
TTITLE3=THE ART OF BLAKEY
TTITLE4=荘厳伝説
TTITLE5=Synesthesia～神の悪戯～
TTITLE6=Emozione
TTITLE7=LowbitFUNK
TTITLE8=Ugetsu
TTITLE9=雪が解ける日に...
TTITLE10=With all my love,
TTITLE11=FLY WITH THE WIND
TTITLE12=Missing My Bird
EXTD=YEAR: 2009
EXTT0=
EXTT1=
EXTT2=
EXTT3=
EXTT4=
EXTT5=
EXTT6=
EXTT7=
EXTT8=
EXTT9=
EXTT10=
EXTT11=
EXTT12=
PLAYORDER=
